<?xml version="1.0" encoding="UTF-8" standalone="no"?>
<svg
   width="137.47105mm"
   height="370.40128mm"
   viewBox="0 0 137.47106 370.40127"
   version="1.1"
   id="svg193"
   sodipodi:docname="estructura.svg"
   inkscape:version="1.2.2 (b0a8486541, 2022-12-01)"
   xmlns:inkscape="http://www.inkscape.org/namespaces/inkscape"
   xmlns:sodipodi="http://sodipodi.sourceforge.net/DTD/sodipodi-0.dtd"
   xmlns="http://www.w3.org/2000/svg"
   xmlns:svg="http://www.w3.org/2000/svg">
  <defs
     id="defs197">
    <marker
       style="overflow:visible"
       id="Stop"
       refX="0"
       refY="0"
       orient="auto"
       inkscape:stockid="Stop"
       markerWidth="1"
       markerHeight="8"
       viewBox="0 0 1 8"
       inkscape:isstock="true"
       inkscape:collect="always"
       preserveAspectRatio="xMidYMid">
      <path
         style="fill:none;stroke:context-stroke;stroke-width:1"
         d="M 0,4 V -4"
         id="path171" />
    </marker>
    <marker
       style="overflow:visible"
       id="Arrow1L"
       refX="0"
       refY="0"
       orient="auto-start-reverse"
       inkscape:stockid="Arrow1L"
       markerWidth="8.75"
       markerHeight="5"
       viewBox="0 0 8.75 5"
       inkscape:isstock="true"
       inkscape:collect="always"
       preserveAspectRatio="xMidYMid">
      <path
         style="fill:context-stroke;fill-rule:evenodd;stroke:none"
         d="M 0,0 5,-5 -12.5,0 5,5 Z"
         id="arrow1L"
         transform="scale(-0.5)" />
    </marker>
    <clipPath
       id="clipPath6821">
      <path
         clip-rule="nonzero"
         d="m 9,1 h 4 V 5.785156 H 9 Z m 0,0"
         id="path8328" />
    </clipPath>
    <clipPath
       id="clipPath8361">
      <path
         clip-rule="nonzero"
         d="m 9,1 h 4 V 5.785156 H 9 Z m 0,0"
         id="path4544" />
    </clipPath>
    <clipPath
       id="clipPath5494">
      <path
         clip-rule="nonzero"
         d="M 5,3 H 9 V 8.414062 H 5 Z m 0,0"
         id="path5946" />
    </clipPath>
    <clipPath
       id="clipPath4199">
      <path
         clip-rule="nonzero"
         d="M 5,3 H 9 V 8.414062 H 5 Z m 0,0"
         id="path8334" />
    </clipPath>
    <clipPath
       id="clipPath6449">
      <path
         clip-rule="nonzero"
         d="M 6,1 H 9 V 5.785156 H 6 Z m 0,0"
         id="path942" />
    </clipPath>
    <clipPath
       id="clipPath3510">
      <path
         clip-rule="nonzero"
         d="m 6,1 h 4 V 5.785156 H 6 Z m 0,0"
         id="path4529" />
    </clipPath>
    <clipPath
       id="clipPath9889">
      <path
         clip-rule="nonzero"
         d="m 6,3 h 4 V 8.414062 H 6 Z m 0,0"
         id="path2080" />
    </clipPath>
    <clipPath
       id="clipPath8785">
      <path
         clip-rule="nonzero"
         d="m 6,3 h 4 V 8.414062 H 6 Z m 0,0"
         id="path464" />
    </clipPath>
    <clipPath
       id="clipPath4199-2">
      <path
         clip-rule="nonzero"
         d="M 5,3 H 9 V 8.414062 H 5 Z m 0,0"
         id="path8334-7" />
    </clipPath>
    <clipPath
       id="clipPath5494-1">
      <path
         clip-rule="nonzero"
         d="M 5,3 H 9 V 8.414062 H 5 Z m 0,0"
         id="path5946-8" />
    </clipPath>
    <marker
       style="overflow:visible"
       id="Stop-9"
       refX="0"
       refY="0"
       orient="auto"
       inkscape:stockid="Stop"
       markerWidth="1"
       markerHeight="8"
       viewBox="0 0 1 8"
       inkscape:isstock="true"
       inkscape:collect="always"
       preserveAspectRatio="xMidYMid">
      <path
         style="fill:none;stroke:context-stroke;stroke-width:1"
         d="M 0,4 V -4"
         id="path171-7" />
    </marker>
    <marker
       style="overflow:visible"
       id="Arrow1L-3"
       refX="0"
       refY="0"
       orient="auto-start-reverse"
       inkscape:stockid="Arrow1L"
       markerWidth="8.75"
       markerHeight="5"
       viewBox="0 0 8.75 5"
       inkscape:isstock="true"
       inkscape:collect="always"
       preserveAspectRatio="xMidYMid">
      <path
         style="fill:context-stroke;fill-rule:evenodd;stroke:none"
         d="M 0,0 5,-5 -12.5,0 5,5 Z"
         id="arrow1L-6"
         transform="scale(-0.5)" />
    </marker>
    <clipPath
       id="clipPath6821-3">
      <path
         clip-rule="nonzero"
         d="m 9,1 h 4 V 5.785156 H 9 Z m 0,0"
         id="path8328-6" />
    </clipPath>
    <clipPath
       id="clipPath8361-7">
      <path
         clip-rule="nonzero"
         d="m 9,1 h 4 V 5.785156 H 9 Z m 0,0"
         id="path4544-5" />
    </clipPath>
    <clipPath
       id="clipPath5494-3">
      <path
         clip-rule="nonzero"
         d="M 5,3 H 9 V 8.414062 H 5 Z m 0,0"
         id="path5946-5" />
    </clipPath>
    <clipPath
       id="clipPath5494-1-6">
      <path
         clip-rule="nonzero"
         d="M 5,3 H 9 V 8.414062 H 5 Z m 0,0"
         id="path5946-8-2" />
    </clipPath>
    <clipPath
       id="clipPath4199-9">
      <path
         clip-rule="nonzero"
         d="M 5,3 H 9 V 8.414062 H 5 Z m 0,0"
         id="path8334-1" />
    </clipPath>
    <clipPath
       id="clipPath4199-2-2">
      <path
         clip-rule="nonzero"
         d="M 5,3 H 9 V 8.414062 H 5 Z m 0,0"
         id="path8334-7-7" />
    </clipPath>
    <clipPath
       id="clipPath6449-0">
      <path
         clip-rule="nonzero"
         d="M 6,1 H 9 V 5.785156 H 6 Z m 0,0"
         id="path942-9" />
    </clipPath>
    <clipPath
       id="clipPath3510-3">
      <path
         clip-rule="nonzero"
         d="m 6,1 h 4 V 5.785156 H 6 Z m 0,0"
         id="path4529-6" />
    </clipPath>
    <marker
       style="overflow:visible"
       id="Stop-0"
       refX="0"
       refY="0"
       orient="auto"
       inkscape:stockid="Stop"
       markerWidth="1"
       markerHeight="8"
       viewBox="0 0 1 8"
       inkscape:isstock="true"
       inkscape:collect="always"
       preserveAspectRatio="xMidYMid">
      <path
         style="fill:none;stroke:context-stroke;stroke-width:1"
         d="M 0,4 V -4"
         id="path171-6" />
    </marker>
    <marker
       style="overflow:visible"
       id="Arrow1L-2"
       refX="0"
       refY="0"
       orient="auto-start-reverse"
       inkscape:stockid="Arrow1L"
       markerWidth="8.75"
       markerHeight="5"
       viewBox="0 0 8.75 5"
       inkscape:isstock="true"
       inkscape:collect="always"
       preserveAspectRatio="xMidYMid">
      <path
         style="fill:context-stroke;fill-rule:evenodd;stroke:none"
         d="M 0,0 5,-5 -12.5,0 5,5 Z"
         id="arrow1L-61"
         transform="scale(-0.5)" />
    </marker>
    <marker
       style="overflow:visible"
       id="Stop-9-8"
       refX="0"
       refY="0"
       orient="auto"
       inkscape:stockid="Stop"
       markerWidth="1"
       markerHeight="8"
       viewBox="0 0 1 8"
       inkscape:isstock="true"
       inkscape:collect="always"
       preserveAspectRatio="xMidYMid">
      <path
         style="fill:none;stroke:context-stroke;stroke-width:1"
         d="M 0,4 V -4"
         id="path171-7-7" />
    </marker>
    <marker
       style="overflow:visible"
       id="Arrow1L-3-9"
       refX="0"
       refY="0"
       orient="auto-start-reverse"
       inkscape:stockid="Arrow1L"
       markerWidth="8.75"
       markerHeight="5"
       viewBox="0 0 8.75 5"
       inkscape:isstock="true"
       inkscape:collect="always"
       preserveAspectRatio="xMidYMid">
      <path
         style="fill:context-stroke;fill-rule:evenodd;stroke:none"
         d="M 0,0 5,-5 -12.5,0 5,5 Z"
         id="arrow1L-6-2"
         transform="scale(-0.5)" />
    </marker>
    <clipPath
       id="clipPath6821-7">
      <path
         clip-rule="nonzero"
         d="m 9,1 h 4 V 5.785156 H 9 Z m 0,0"
         id="path8328-7" />
    </clipPath>
    <clipPath
       id="clipPath8361-1">
      <path
         clip-rule="nonzero"
         d="m 9,1 h 4 V 5.785156 H 9 Z m 0,0"
         id="path4544-1" />
    </clipPath>
    <clipPath
       id="clipPath5494-5">
      <path
         clip-rule="nonzero"
         d="M 5,3 H 9 V 8.414062 H 5 Z m 0,0"
         id="path5946-9" />
    </clipPath>
    <clipPath
       id="clipPath5494-1-7">
      <path
         clip-rule="nonzero"
         d="M 5,3 H 9 V 8.414062 H 5 Z m 0,0"
         id="path5946-8-7" />
    </clipPath>
    <clipPath
       id="clipPath4199-6">
      <path
         clip-rule="nonzero"
         d="M 5,3 H 9 V 8.414062 H 5 Z m 0,0"
         id="path8334-73" />
    </clipPath>
    <clipPath
       id="clipPath4199-2-6">
      <path
         clip-rule="nonzero"
         d="M 5,3 H 9 V 8.414062 H 5 Z m 0,0"
         id="path8334-7-5" />
    </clipPath>
    <clipPath
       id="clipPath6449-6">
      <path
         clip-rule="nonzero"
         d="M 6,1 H 9 V 5.785156 H 6 Z m 0,0"
         id="path942-3" />
    </clipPath>
    <clipPath
       id="clipPath3510-9">
      <path
         clip-rule="nonzero"
         d="m 6,1 h 4 V 5.785156 H 6 Z m 0,0"
         id="path4529-4" />
    </clipPath>
    <clipPath
       id="clipPath8361-7-2">
      <path
         clip-rule="nonzero"
         d="m 9,1 h 4 V 5.785156 H 9 Z m 0,0"
         id="path4544-5-9" />
    </clipPath>
    <clipPath
       id="clipPath6449-0-9">
      <path
         clip-rule="nonzero"
         d="M 6,1 H 9 V 5.785156 H 6 Z m 0,0"
         id="path942-9-0" />
    </clipPath>
    <clipPath
       id="clipPath3510-3-8">
      <path
         clip-rule="nonzero"
         d="m 6,1 h 4 V 5.785156 H 6 Z m 0,0"
         id="path4529-6-1" />
    </clipPath>
    <marker
       style="overflow:visible"
       id="Stop-0-3"
       refX="0"
       refY="0"
       orient="auto"
       inkscape:stockid="Stop"
       markerWidth="1"
       markerHeight="8"
       viewBox="0 0 1 8"
       inkscape:isstock="true"
       inkscape:collect="always"
       preserveAspectRatio="xMidYMid">
      <path
         style="fill:none;stroke:context-stroke;stroke-width:1"
         d="M 0,4 V -4"
         id="path171-6-1" />
    </marker>
    <marker
       style="overflow:visible"
       id="Arrow1L-2-1"
       refX="0"
       refY="0"
       orient="auto-start-reverse"
       inkscape:stockid="Arrow1L"
       markerWidth="8.75"
       markerHeight="5"
       viewBox="0 0 8.75 5"
       inkscape:isstock="true"
       inkscape:collect="always"
       preserveAspectRatio="xMidYMid">
      <path
         style="fill:context-stroke;fill-rule:evenodd;stroke:none"
         d="M 0,0 5,-5 -12.5,0 5,5 Z"
         id="arrow1L-61-0"
         transform="scale(-0.5)" />
    </marker>
    <marker
       style="overflow:visible"
       id="Stop-9-8-3"
       refX="0"
       refY="0"
       orient="auto"
       inkscape:stockid="Stop"
       markerWidth="1"
       markerHeight="8"
       viewBox="0 0 1 8"
       inkscape:isstock="true"
       inkscape:collect="always"
       preserveAspectRatio="xMidYMid">
      <path
         style="fill:none;stroke:context-stroke;stroke-width:1"
         d="M 0,4 V -4"
         id="path171-7-7-4" />
    </marker>
    <marker
       style="overflow:visible"
       id="Arrow1L-3-9-0"
       refX="0"
       refY="0"
       orient="auto-start-reverse"
       inkscape:stockid="Arrow1L"
       markerWidth="8.75"
       markerHeight="5"
       viewBox="0 0 8.75 5"
       inkscape:isstock="true"
       inkscape:collect="always"
       preserveAspectRatio="xMidYMid">
      <path
         style="fill:context-stroke;fill-rule:evenodd;stroke:none"
         d="M 0,0 5,-5 -12.5,0 5,5 Z"
         id="arrow1L-6-2-3"
         transform="scale(-0.5)" />
    </marker>
  </defs>
  <sodipodi:namedview
     id="namedview195"
     pagecolor="#ffffff"
     bordercolor="#000000"
     borderopacity="0.25"
     inkscape:showpageshadow="2"
     inkscape:pageopacity="0.0"
     inkscape:pagecheckerboard="0"
     inkscape:deskcolor="#d1d1d1"
     inkscape:document-units="mm"
     showgrid="false"
     inkscape:zoom="0.79232051"
     inkscape:cx="365.38244"
     inkscape:cy="1228.0384"
     inkscape:window-width="1920"
     inkscape:window-height="995"
     inkscape:window-x="0"
     inkscape:window-y="0"
     inkscape:window-maximized="1"
     inkscape:current-layer="svg193" />
  <!-- Background -->
  <!-- Ground line -->
  <g
     id="ground"
     transform="matrix(0.75846677,0,0,1,-7.4404678,-74)">
    <line
       x1="10"
       y1="170"
       x2="190"
       y2="170"
       stroke="#000000"
       stroke-width="1.2"
       id="line134" />
  </g>
  <g
     id="ground-0"
     transform="matrix(0.75846677,0,0,1,-46.743004,56.40127)"
     inkscape:export-filename="modo-1.jpg"
     inkscape:export-xdpi="200"
     inkscape:export-ydpi="200">
    <line
       x1="63.023651"
       y1="170"
       x2="243.02362"
       y2="170"
       stroke="#000000"
       stroke-width="1.2"
       id="line134-2"
       style="fill:#e0e0e0;fill-opacity:1" />
  </g>
  <path
     style="fill:#e0e0e0;fill-opacity:1;stroke:none;stroke-width:1.33566"
     d="m 114.85251,908.78588 c 0,-0.65968 0.98524,-9.53393 2.18943,-19.72056 8.13109,-68.78382 23.99758,-222.29351 37.42934,-362.1321 l 3.0004,-31.23736 11.265,-0.17263 11.265,-0.17263 -0.3948,3.95898 c -0.21714,2.17744 -3.23472,32.64055 -6.70573,67.69581 -12.34078,124.63485 -23.02628,226.42248 -32.52749,309.84936 -1.89734,16.65992 -3.59361,30.92972 -3.76947,31.71065 -0.31622,1.40417 -0.43832,1.41988 -11.03572,1.41988 -10.10849,0 -10.71596,-0.068 -10.71596,-1.1994 z"
     id="path3860"
     transform="scale(0.26458333)" />
  <!-- Building group for easy scaling/moving -->
  <g
     id="left_column"
     transform="translate(3.0588932,-59.60001)">
    <rect
       x="27"
       y="60"
       width="6"
       height="110"
       fill="#e0e0e0"
       stroke="#000000"
       stroke-width="0.8"
       id="rect139" />
  </g>
  <g
     id="right_column"
     transform="translate(3.0588932,-59.60001)">
    <rect
       x="87"
       y="60"
       width="6"
       height="110"
       fill="#e0e0e0"
       stroke="#000000"
       stroke-width="0.8"
       id="rect142" />
  </g>
  <g
     id="first_floor"
     transform="translate(3.0588932,-59.60001)">
    <rect
       x="27"
       y="118"
       width="66"
       height="4"
       fill="#e0e0e0"
       stroke="#000000"
       stroke-width="0.8"
       id="rect145" />
  </g>
  <g
     id="second_floor"
     transform="translate(3.0588932,-59.60001)">
    <rect
       x="27"
       y="68"
       width="66"
       height="4"
       fill="#e0e0e0"
       stroke="#000000"
       stroke-width="0.8"
       id="rect150" />
  </g>
  <g
     id="story1_height"
     transform="translate(3.0588932,-59.60001)">
    <line
       x1="110"
       y1="120"
       x2="110"
       y2="170"
       stroke="#000000"
       stroke-width="0.6"
       id="line155" />
    <line
       x1="107"
       y1="120"
       x2="113"
       y2="120"
       stroke="#000000"
       stroke-width="0.6"
       id="line157" />
    <line
       x1="107"
       y1="170"
       x2="113"
       y2="170"
       stroke="#000000"
       stroke-width="0.6"
       id="line159" />
  </g>
  <g
     id="story2_height"
     transform="translate(3.0588932,-59.60001)">
    <line
       x1="110"
       y1="70"
       x2="110"
       y2="120"
       stroke="#000000"
       stroke-width="0.6"
       id="line164" />
    <line
       x1="107"
       y1="70"
       x2="113"
       y2="70"
       stroke="#000000"
       stroke-width="0.6"
       id="line166" />
    <line
       x1="107"
       y1="120"
       x2="113"
       y2="120"
       stroke="#000000"
       stroke-width="0.6"
       id="line168" />
  </g>
  <g
     id="dofs"
     transform="translate(3.0588932,-59.60001)">
    <!-- 1st floor DOF -->
    <circle
       cx="60"
       cy="120"
       r="2"
       fill="#000000"
       id="circle173" />
    <!-- 2nd floor DOF -->
    <circle
       cx="60"
       cy="70"
       r="2"
       fill="#000000"
       id="circle177" />
  </g>
  <g
     inkscape:label=""
     transform="matrix(2,0,0,2,53.23523,50.3799)"
     id="g651">
    <g
       fill="#000000"
       fill-opacity="1"
       id="g17"
       transform="matrix(0.352778,0,0,0.352778,-0.104731,0.0410104)">
      <g
         id="use15"
         transform="translate(0,4.29)">
        <path
           d="m 0.875,-0.59375 c -0.03125,0.15625 -0.09375,0.390625 -0.09375,0.4375 0,0.171875 0.140625,0.265625 0.296875,0.265625 0.125,0 0.296875,-0.078125 0.375,-0.28125 0,-0.015625 0.125,-0.484375 0.1875,-0.734375 l 0.21875,-0.890625 C 1.90625,-2.03125 1.96875,-2.25 2.03125,-2.46875 c 0.03125,-0.171875 0.109375,-0.46875 0.125,-0.5 0.140625,-0.3125 0.671875,-1.21875 1.625,-1.21875 0.453125,0 0.53125,0.375 0.53125,0.703125 0,0.25 -0.0625,0.53125 -0.140625,0.828125 L 3.890625,-1.5 3.6875,-0.75 c -0.03125,0.203125 -0.125,0.546875 -0.125,0.59375 0,0.171875 0.140625,0.265625 0.28125,0.265625 0.3125,0 0.375,-0.25 0.453125,-0.5625 0.140625,-0.5625 0.515625,-2.015625 0.59375,-2.40625 0.03125,-0.125 0.5625,-1.328125 1.65625,-1.328125 0.421875,0 0.53125,0.34375 0.53125,0.703125 0,0.5625 -0.421875,1.703125 -0.625,2.234375 -0.078125,0.234375 -0.125,0.34375 -0.125,0.546875 0,0.46875 0.34375,0.8125 0.8125,0.8125 0.9375,0 1.3125,-1.453125 1.3125,-1.53125 0,-0.109375 -0.09375,-0.109375 -0.125,-0.109375 -0.09375,0 -0.09375,0.03125 -0.140625,0.1875 -0.15625,0.53125 -0.46875,1.234375 -1.015625,1.234375 -0.171875,0 -0.25,-0.09375 -0.25,-0.328125 0,-0.25 0.09375,-0.484375 0.1875,-0.703125 0.1875,-0.53125 0.609375,-1.625 0.609375,-2.203125 0,-0.640625 -0.40625,-1.0625 -1.15625,-1.0625 -0.734375,0 -1.25,0.4375 -1.625,0.96875 0,-0.125 -0.03125,-0.46875 -0.3125,-0.703125 -0.25,-0.21875 -0.5625,-0.265625 -0.8125,-0.265625 -0.90625,0 -1.390625,0.640625 -1.5625,0.875 -0.046875,-0.578125 -0.46875,-0.875 -0.921875,-0.875 -0.453125,0 -0.640625,0.390625 -0.734375,0.5625 -0.171875,0.359375 -0.296875,0.9375 -0.296875,0.96875 0,0.109375 0.09375,0.109375 0.109375,0.109375 0.109375,0 0.109375,-0.015625 0.171875,-0.234375 0.171875,-0.703125 0.375,-1.1875 0.734375,-1.1875 0.15625,0 0.296875,0.078125 0.296875,0.453125 0,0.21875 -0.03125,0.328125 -0.15625,0.84375 z m 0,0"
           id="path29" />
      </g>
    </g>
    <g
       clip-path="url(#clipPath6821)"
       id="g23"
       transform="matrix(0.352778,0,0,0.352778,-0.104731,0.0410104)">
      <g
         fill="#000000"
         fill-opacity="1"
         id="g21">
        <g
           id="use19"
           transform="translate(8.7469997,5.7839999)">
          <path
             d="m 2.328125,-4.4375 c 0,-0.1875 0,-0.1875 -0.203125,-0.1875 -0.453125,0.4375 -1.078125,0.4375 -1.359375,0.4375 v 0.25 c 0.15625,0 0.625,0 1,-0.1875 v 3.546875 c 0,0.234375 0,0.328125 -0.6875,0.328125 H 0.8125 V 0 c 0.125,0 0.984375,-0.03125 1.234375,-0.03125 0.21875,0 1.09375,0.03125 1.25,0.03125 V -0.25 H 3.03125 c -0.703125,0 -0.703125,-0.09375 -0.703125,-0.328125 z m 0,0"
             id="path33" />
        </g>
      </g>
    </g>
  </g>
  <g
     inkscape:label=""
     transform="matrix(2,0,0,2,51.891322,1.78087)"
     id="g769">
    <g
       fill="#000000"
       fill-opacity="1"
       id="g759"
       transform="matrix(0.352778,0,0,0.352778,-0.104731,0.0410104)">
      <g
         id="g757"
         transform="translate(0,4.29)">
        <path
           d="m 0.875,-0.59375 c -0.03125,0.15625 -0.09375,0.390625 -0.09375,0.4375 0,0.171875 0.140625,0.265625 0.296875,0.265625 0.125,0 0.296875,-0.078125 0.375,-0.28125 0,-0.015625 0.125,-0.484375 0.1875,-0.734375 l 0.21875,-0.890625 C 1.90625,-2.03125 1.96875,-2.25 2.03125,-2.46875 c 0.03125,-0.171875 0.109375,-0.46875 0.125,-0.5 0.140625,-0.3125 0.671875,-1.21875 1.625,-1.21875 0.453125,0 0.53125,0.375 0.53125,0.703125 0,0.25 -0.0625,0.53125 -0.140625,0.828125 L 3.890625,-1.5 3.6875,-0.75 c -0.03125,0.203125 -0.125,0.546875 -0.125,0.59375 0,0.171875 0.140625,0.265625 0.28125,0.265625 0.3125,0 0.375,-0.25 0.453125,-0.5625 0.140625,-0.5625 0.515625,-2.015625 0.59375,-2.40625 0.03125,-0.125 0.5625,-1.328125 1.65625,-1.328125 0.421875,0 0.53125,0.34375 0.53125,0.703125 0,0.5625 -0.421875,1.703125 -0.625,2.234375 -0.078125,0.234375 -0.125,0.34375 -0.125,0.546875 0,0.46875 0.34375,0.8125 0.8125,0.8125 0.9375,0 1.3125,-1.453125 1.3125,-1.53125 0,-0.109375 -0.09375,-0.109375 -0.125,-0.109375 -0.09375,0 -0.09375,0.03125 -0.140625,0.1875 -0.15625,0.53125 -0.46875,1.234375 -1.015625,1.234375 -0.171875,0 -0.25,-0.09375 -0.25,-0.328125 0,-0.25 0.09375,-0.484375 0.1875,-0.703125 0.1875,-0.53125 0.609375,-1.625 0.609375,-2.203125 0,-0.640625 -0.40625,-1.0625 -1.15625,-1.0625 -0.734375,0 -1.25,0.4375 -1.625,0.96875 0,-0.125 -0.03125,-0.46875 -0.3125,-0.703125 -0.25,-0.21875 -0.5625,-0.265625 -0.8125,-0.265625 -0.90625,0 -1.390625,0.640625 -1.5625,0.875 -0.046875,-0.578125 -0.46875,-0.875 -0.921875,-0.875 -0.453125,0 -0.640625,0.390625 -0.734375,0.5625 -0.171875,0.359375 -0.296875,0.9375 -0.296875,0.96875 0,0.109375 0.09375,0.109375 0.109375,0.109375 0.109375,0 0.109375,-0.015625 0.171875,-0.234375 0.171875,-0.703125 0.375,-1.1875 0.734375,-1.1875 0.15625,0 0.296875,0.078125 0.296875,0.453125 0,0.21875 -0.03125,0.328125 -0.15625,0.84375 z m 0,0"
           id="path755" />
      </g>
    </g>
    <g
       clip-path="url(#clipPath8361)"
       id="g767"
       transform="matrix(0.352778,0,0,0.352778,-0.104731,0.0410104)">
      <g
         fill="#000000"
         fill-opacity="1"
         id="g765">
        <g
           id="g763"
           transform="translate(8.7469997,5.7839999)">
          <path
             d="M 3.515625,-1.265625 H 3.28125 c -0.015625,0.15625 -0.09375,0.5625 -0.1875,0.625 C 3.046875,-0.59375 2.515625,-0.59375 2.40625,-0.59375 H 1.125 c 0.734375,-0.640625 0.984375,-0.84375 1.390625,-1.171875 0.515625,-0.40625 1,-0.84375 1,-1.5 0,-0.84375 -0.734375,-1.359375 -1.625,-1.359375 -0.859375,0 -1.453125,0.609375 -1.453125,1.25 0,0.34375 0.296875,0.390625 0.375,0.390625 0.15625,0 0.359375,-0.125 0.359375,-0.375 0,-0.125 -0.046875,-0.375 -0.40625,-0.375 C 0.984375,-4.21875 1.453125,-4.375 1.78125,-4.375 c 0.703125,0 1.0625,0.546875 1.0625,1.109375 0,0.609375 -0.4375,1.078125 -0.65625,1.328125 L 0.515625,-0.265625 C 0.4375,-0.203125 0.4375,-0.1875 0.4375,0 h 2.875 z m 0,0"
             id="path761" />
        </g>
      </g>
    </g>
  </g>
  <g
     inkscape:label=""
     transform="matrix(2,0,0,2,21.905292,31.14933)"
     id="g907">
    <g
       fill="#000000"
       fill-opacity="1"
       id="g897"
       transform="matrix(0.352778,0,0,0.352778,-0.192925,0.00101418)">
      <g
         id="g895"
         transform="translate(0,6.9190001)">
        <path
           d="m 2.859375,-6.8125 c 0,0 0,-0.109375 -0.125,-0.109375 -0.234375,0 -0.953125,0.078125 -1.21875,0.109375 -0.078125,0 -0.1875,0.015625 -0.1875,0.1875 0,0.125 0.09375,0.125 0.234375,0.125 0.484375,0 0.5,0.0625 0.5,0.171875 L 2.03125,-6.125 0.59375,-0.390625 c -0.046875,0.140625 -0.046875,0.15625 -0.046875,0.21875 0,0.234375 0.203125,0.28125 0.296875,0.28125 0.125,0 0.265625,-0.09375 0.328125,-0.203125 0.046875,-0.09375 0.5,-1.9375 0.5625,-2.1875 0.34375,0.03125 1.15625,0.1875 1.15625,0.84375 0,0.078125 0,0.109375 -0.03125,0.21875 -0.015625,0.109375 -0.03125,0.234375 -0.03125,0.34375 0,0.578125 0.390625,0.984375 0.90625,0.984375 0.296875,0 0.578125,-0.15625 0.796875,-0.53125 0.25,-0.4375 0.359375,-0.984375 0.359375,-1 0,-0.109375 -0.09375,-0.109375 -0.125,-0.109375 -0.09375,0 -0.109375,0.046875 -0.140625,0.1875 -0.203125,0.71875 -0.421875,1.234375 -0.859375,1.234375 -0.203125,0 -0.328125,-0.109375 -0.328125,-0.46875 0,-0.171875 0.046875,-0.40625 0.078125,-0.5625 C 3.5625,-1.3125 3.5625,-1.34375 3.5625,-1.453125 3.5625,-2.09375 2.9375,-2.375 2.078125,-2.5 2.390625,-2.671875 2.71875,-2.984375 2.9375,-3.234375 3.421875,-3.765625 3.875,-4.1875 4.359375,-4.1875 c 0.0625,0 0.078125,0 0.09375,0.015625 0.125,0.015625 0.125,0.015625 0.21875,0.078125 0.015625,0 0.015625,0.015625 0.03125,0.03125 -0.46875,0.03125 -0.5625,0.421875 -0.5625,0.546875 0,0.15625 0.109375,0.34375 0.375,0.34375 0.265625,0 0.546875,-0.21875 0.546875,-0.609375 0,-0.296875 -0.234375,-0.625 -0.671875,-0.625 -0.28125,0 -0.734375,0.078125 -1.453125,0.875 -0.34375,0.375 -0.734375,0.78125 -1.109375,0.921875 z m 0,0"
           id="path893" />
      </g>
    </g>
    <g
       clip-path="url(#clipPath5494)"
       id="g905"
       transform="matrix(0.352778,0,0,0.352778,-0.192925,0.00101418)">
      <g
         fill="#000000"
         fill-opacity="1"
         id="g903">
        <g
           id="g901"
           transform="translate(5.1869998,8.4130001)">
          <path
             d="M 3.515625,-1.265625 H 3.28125 c -0.015625,0.15625 -0.09375,0.5625 -0.1875,0.625 C 3.046875,-0.59375 2.515625,-0.59375 2.40625,-0.59375 H 1.125 c 0.734375,-0.640625 0.984375,-0.84375 1.390625,-1.171875 0.515625,-0.40625 1,-0.84375 1,-1.5 0,-0.84375 -0.734375,-1.359375 -1.625,-1.359375 -0.859375,0 -1.453125,0.609375 -1.453125,1.25 0,0.34375 0.296875,0.390625 0.375,0.390625 0.15625,0 0.359375,-0.125 0.359375,-0.375 0,-0.125 -0.046875,-0.375 -0.40625,-0.375 C 0.984375,-4.21875 1.453125,-4.375 1.78125,-4.375 c 0.703125,0 1.0625,0.546875 1.0625,1.109375 0,0.609375 -0.4375,1.078125 -0.65625,1.328125 L 0.515625,-0.265625 C 0.4375,-0.203125 0.4375,-0.1875 0.4375,0 h 2.875 z m 0,0"
             id="path899" />
        </g>
      </g>
    </g>
  </g>
  <g
     inkscape:label=""
     transform="matrix(2,0,0,2,82.138135,32.71677)"
     id="g907-7">
    <g
       fill="#000000"
       fill-opacity="1"
       id="g897-9"
       transform="matrix(0.352778,0,0,0.352778,-0.192925,0.00101418)">
      <g
         id="g895-2"
         transform="translate(0,6.9190001)">
        <path
           d="m 2.859375,-6.8125 c 0,0 0,-0.109375 -0.125,-0.109375 -0.234375,0 -0.953125,0.078125 -1.21875,0.109375 -0.078125,0 -0.1875,0.015625 -0.1875,0.1875 0,0.125 0.09375,0.125 0.234375,0.125 0.484375,0 0.5,0.0625 0.5,0.171875 L 2.03125,-6.125 0.59375,-0.390625 c -0.046875,0.140625 -0.046875,0.15625 -0.046875,0.21875 0,0.234375 0.203125,0.28125 0.296875,0.28125 0.125,0 0.265625,-0.09375 0.328125,-0.203125 0.046875,-0.09375 0.5,-1.9375 0.5625,-2.1875 0.34375,0.03125 1.15625,0.1875 1.15625,0.84375 0,0.078125 0,0.109375 -0.03125,0.21875 -0.015625,0.109375 -0.03125,0.234375 -0.03125,0.34375 0,0.578125 0.390625,0.984375 0.90625,0.984375 0.296875,0 0.578125,-0.15625 0.796875,-0.53125 0.25,-0.4375 0.359375,-0.984375 0.359375,-1 0,-0.109375 -0.09375,-0.109375 -0.125,-0.109375 -0.09375,0 -0.109375,0.046875 -0.140625,0.1875 -0.203125,0.71875 -0.421875,1.234375 -0.859375,1.234375 -0.203125,0 -0.328125,-0.109375 -0.328125,-0.46875 0,-0.171875 0.046875,-0.40625 0.078125,-0.5625 C 3.5625,-1.3125 3.5625,-1.34375 3.5625,-1.453125 3.5625,-2.09375 2.9375,-2.375 2.078125,-2.5 2.390625,-2.671875 2.71875,-2.984375 2.9375,-3.234375 3.421875,-3.765625 3.875,-4.1875 4.359375,-4.1875 c 0.0625,0 0.078125,0 0.09375,0.015625 0.125,0.015625 0.125,0.015625 0.21875,0.078125 0.015625,0 0.015625,0.015625 0.03125,0.03125 -0.46875,0.03125 -0.5625,0.421875 -0.5625,0.546875 0,0.15625 0.109375,0.34375 0.375,0.34375 0.265625,0 0.546875,-0.21875 0.546875,-0.609375 0,-0.296875 -0.234375,-0.625 -0.671875,-0.625 -0.28125,0 -0.734375,0.078125 -1.453125,0.875 -0.34375,0.375 -0.734375,0.78125 -1.109375,0.921875 z m 0,0"
           id="path893-0" />
      </g>
    </g>
    <g
       clip-path="url(#clipPath5494-1)"
       id="g905-2"
       transform="matrix(0.352778,0,0,0.352778,-0.192925,0.00101418)">
      <g
         fill="#000000"
         fill-opacity="1"
         id="g903-3">
        <g
           id="g901-7"
           transform="translate(5.1869998,8.4130001)">
          <path
             d="M 3.515625,-1.265625 H 3.28125 c -0.015625,0.15625 -0.09375,0.5625 -0.1875,0.625 C 3.046875,-0.59375 2.515625,-0.59375 2.40625,-0.59375 H 1.125 c 0.734375,-0.640625 0.984375,-0.84375 1.390625,-1.171875 0.515625,-0.40625 1,-0.84375 1,-1.5 0,-0.84375 -0.734375,-1.359375 -1.625,-1.359375 -0.859375,0 -1.453125,0.609375 -1.453125,1.25 0,0.34375 0.296875,0.390625 0.375,0.390625 0.15625,0 0.359375,-0.125 0.359375,-0.375 0,-0.125 -0.046875,-0.375 -0.40625,-0.375 C 0.984375,-4.21875 1.453125,-4.375 1.78125,-4.375 c 0.703125,0 1.0625,0.546875 1.0625,1.109375 0,0.609375 -0.4375,1.078125 -0.65625,1.328125 L 0.515625,-0.265625 C 0.4375,-0.203125 0.4375,-0.1875 0.4375,0 h 2.875 z m 0,0"
             id="path899-5" />
        </g>
      </g>
    </g>
  </g>
  <g
     inkscape:label=""
     transform="matrix(2,0,0,2,21.789448,80.80814)"
     id="g1065">
    <g
       fill="#000000"
       fill-opacity="1"
       id="g1055"
       transform="matrix(0.352778,0,0,0.352778,-0.192925,0.00101418)">
      <g
         id="g1053"
         transform="translate(0,6.9190001)">
        <path
           d="m 2.859375,-6.8125 c 0,0 0,-0.109375 -0.125,-0.109375 -0.234375,0 -0.953125,0.078125 -1.21875,0.109375 -0.078125,0 -0.1875,0.015625 -0.1875,0.1875 0,0.125 0.09375,0.125 0.234375,0.125 0.484375,0 0.5,0.0625 0.5,0.171875 L 2.03125,-6.125 0.59375,-0.390625 c -0.046875,0.140625 -0.046875,0.15625 -0.046875,0.21875 0,0.234375 0.203125,0.28125 0.296875,0.28125 0.125,0 0.265625,-0.09375 0.328125,-0.203125 0.046875,-0.09375 0.5,-1.9375 0.5625,-2.1875 0.34375,0.03125 1.15625,0.1875 1.15625,0.84375 0,0.078125 0,0.109375 -0.03125,0.21875 -0.015625,0.109375 -0.03125,0.234375 -0.03125,0.34375 0,0.578125 0.390625,0.984375 0.90625,0.984375 0.296875,0 0.578125,-0.15625 0.796875,-0.53125 0.25,-0.4375 0.359375,-0.984375 0.359375,-1 0,-0.109375 -0.09375,-0.109375 -0.125,-0.109375 -0.09375,0 -0.109375,0.046875 -0.140625,0.1875 -0.203125,0.71875 -0.421875,1.234375 -0.859375,1.234375 -0.203125,0 -0.328125,-0.109375 -0.328125,-0.46875 0,-0.171875 0.046875,-0.40625 0.078125,-0.5625 C 3.5625,-1.3125 3.5625,-1.34375 3.5625,-1.453125 3.5625,-2.09375 2.9375,-2.375 2.078125,-2.5 2.390625,-2.671875 2.71875,-2.984375 2.9375,-3.234375 3.421875,-3.765625 3.875,-4.1875 4.359375,-4.1875 c 0.0625,0 0.078125,0 0.09375,0.015625 0.125,0.015625 0.125,0.015625 0.21875,0.078125 0.015625,0 0.015625,0.015625 0.03125,0.03125 -0.46875,0.03125 -0.5625,0.421875 -0.5625,0.546875 0,0.15625 0.109375,0.34375 0.375,0.34375 0.265625,0 0.546875,-0.21875 0.546875,-0.609375 0,-0.296875 -0.234375,-0.625 -0.671875,-0.625 -0.28125,0 -0.734375,0.078125 -1.453125,0.875 -0.34375,0.375 -0.734375,0.78125 -1.109375,0.921875 z m 0,0"
           id="path1051" />
      </g>
    </g>
    <g
       clip-path="url(#clipPath4199)"
       id="g1063"
       transform="matrix(0.352778,0,0,0.352778,-0.192925,0.00101418)">
      <g
         fill="#000000"
         fill-opacity="1"
         id="g1061">
        <g
           id="g1059"
           transform="translate(5.1869998,8.4130001)">
          <path
             d="m 2.328125,-4.4375 c 0,-0.1875 0,-0.1875 -0.203125,-0.1875 -0.453125,0.4375 -1.078125,0.4375 -1.359375,0.4375 v 0.25 c 0.15625,0 0.625,0 1,-0.1875 v 3.546875 c 0,0.234375 0,0.328125 -0.6875,0.328125 H 0.8125 V 0 c 0.125,0 0.984375,-0.03125 1.234375,-0.03125 0.21875,0 1.09375,0.03125 1.25,0.03125 V -0.25 H 3.03125 c -0.703125,0 -0.703125,-0.09375 -0.703125,-0.328125 z m 0,0"
             id="path1057" />
        </g>
      </g>
    </g>
  </g>
  <g
     inkscape:label=""
     transform="matrix(2,0,0,2,82.148275,80.80802)"
     id="g1065-0">
    <g
       fill="#000000"
       fill-opacity="1"
       id="g1055-9"
       transform="matrix(0.352778,0,0,0.352778,-0.192925,0.00101418)">
      <g
         id="g1053-3"
         transform="translate(0,6.9190001)">
        <path
           d="m 2.859375,-6.8125 c 0,0 0,-0.109375 -0.125,-0.109375 -0.234375,0 -0.953125,0.078125 -1.21875,0.109375 -0.078125,0 -0.1875,0.015625 -0.1875,0.1875 0,0.125 0.09375,0.125 0.234375,0.125 0.484375,0 0.5,0.0625 0.5,0.171875 L 2.03125,-6.125 0.59375,-0.390625 c -0.046875,0.140625 -0.046875,0.15625 -0.046875,0.21875 0,0.234375 0.203125,0.28125 0.296875,0.28125 0.125,0 0.265625,-0.09375 0.328125,-0.203125 0.046875,-0.09375 0.5,-1.9375 0.5625,-2.1875 0.34375,0.03125 1.15625,0.1875 1.15625,0.84375 0,0.078125 0,0.109375 -0.03125,0.21875 -0.015625,0.109375 -0.03125,0.234375 -0.03125,0.34375 0,0.578125 0.390625,0.984375 0.90625,0.984375 0.296875,0 0.578125,-0.15625 0.796875,-0.53125 0.25,-0.4375 0.359375,-0.984375 0.359375,-1 0,-0.109375 -0.09375,-0.109375 -0.125,-0.109375 -0.09375,0 -0.109375,0.046875 -0.140625,0.1875 -0.203125,0.71875 -0.421875,1.234375 -0.859375,1.234375 -0.203125,0 -0.328125,-0.109375 -0.328125,-0.46875 0,-0.171875 0.046875,-0.40625 0.078125,-0.5625 C 3.5625,-1.3125 3.5625,-1.34375 3.5625,-1.453125 3.5625,-2.09375 2.9375,-2.375 2.078125,-2.5 2.390625,-2.671875 2.71875,-2.984375 2.9375,-3.234375 3.421875,-3.765625 3.875,-4.1875 4.359375,-4.1875 c 0.0625,0 0.078125,0 0.09375,0.015625 0.125,0.015625 0.125,0.015625 0.21875,0.078125 0.015625,0 0.015625,0.015625 0.03125,0.03125 -0.46875,0.03125 -0.5625,0.421875 -0.5625,0.546875 0,0.15625 0.109375,0.34375 0.375,0.34375 0.265625,0 0.546875,-0.21875 0.546875,-0.609375 0,-0.296875 -0.234375,-0.625 -0.671875,-0.625 -0.28125,0 -0.734375,0.078125 -1.453125,0.875 -0.34375,0.375 -0.734375,0.78125 -1.109375,0.921875 z m 0,0"
           id="path1051-6" />
      </g>
    </g>
    <g
       clip-path="url(#clipPath4199-2)"
       id="g1063-0"
       transform="matrix(0.352778,0,0,0.352778,-0.192925,0.00101418)">
      <g
         fill="#000000"
         fill-opacity="1"
         id="g1061-6">
        <g
           id="g1059-2"
           transform="translate(5.1869998,8.4130001)">
          <path
             d="m 2.328125,-4.4375 c 0,-0.1875 0,-0.1875 -0.203125,-0.1875 -0.453125,0.4375 -1.078125,0.4375 -1.359375,0.4375 v 0.25 c 0.15625,0 0.625,0 1,-0.1875 v 3.546875 c 0,0.234375 0,0.328125 -0.6875,0.328125 H 0.8125 V 0 c 0.125,0 0.984375,-0.03125 1.234375,-0.03125 0.21875,0 1.09375,0.03125 1.25,0.03125 V -0.25 H 3.03125 c -0.703125,0 -0.703125,-0.09375 -0.703125,-0.328125 z m 0,0"
             id="path1057-6" />
        </g>
      </g>
    </g>
  </g>
  <g
     inkscape:label=""
     transform="matrix(2,0,0,2,63.158725,70.33975)"
     id="g1243">
    <g
       fill="#000000"
       fill-opacity="1"
       id="g1233"
       transform="matrix(0.352778,0,0,0.352778,-0.104731,0.0410104)">
      <g
         id="g1231"
         transform="translate(0,4.29)">
        <path
           d="M 3.484375,-0.5625 C 3.59375,-0.15625 3.953125,0.109375 4.375,0.109375 4.71875,0.109375 4.953125,-0.125 5.109375,-0.4375 5.28125,-0.796875 5.40625,-1.40625 5.40625,-1.421875 c 0,-0.109375 -0.078125,-0.109375 -0.109375,-0.109375 -0.109375,0 -0.109375,0.046875 -0.140625,0.1875 -0.140625,0.5625 -0.328125,1.234375 -0.75,1.234375 -0.203125,0 -0.3125,-0.125 -0.3125,-0.453125 0,-0.21875 0.125,-0.6875 0.203125,-1.046875 L 4.578125,-2.6875 C 4.609375,-2.828125 4.703125,-3.203125 4.75,-3.359375 4.796875,-3.59375 4.890625,-3.96875 4.890625,-4.03125 c 0,-0.171875 -0.140625,-0.265625 -0.28125,-0.265625 -0.046875,0 -0.3125,0.015625 -0.390625,0.34375 -0.1875,0.734375 -0.625,2.484375 -0.75,3 -0.015625,0.046875 -0.40625,0.84375 -1.140625,0.84375 -0.515625,0 -0.609375,-0.453125 -0.609375,-0.8125 0,-0.5625 0.28125,-1.34375 0.53125,-2.03125 0.125,-0.3125 0.171875,-0.453125 0.171875,-0.640625 0,-0.4375 -0.3125,-0.8125 -0.8125,-0.8125 -0.953125,0 -1.3125,1.453125 -1.3125,1.53125 0,0.109375 0.09375,0.109375 0.109375,0.109375 0.109375,0 0.109375,-0.03125 0.15625,-0.1875 0.25,-0.859375 0.640625,-1.234375 1.015625,-1.234375 0.09375,0 0.25,0.015625 0.25,0.328125 0,0.234375 -0.109375,0.53125 -0.171875,0.671875 -0.375,1 -0.578125,1.609375 -0.578125,2.09375 0,0.953125 0.6875,1.203125 1.21875,1.203125 0.65625,0 1.015625,-0.453125 1.1875,-0.671875 z m 0,0"
           id="path1229" />
      </g>
    </g>
    <g
       clip-path="url(#clipPath6449)"
       id="g1241"
       transform="matrix(0.352778,0,0,0.352778,-0.104731,0.0410104)">
      <g
         fill="#000000"
         fill-opacity="1"
         id="g1239">
        <g
           id="g1237"
           transform="translate(5.7030001,5.7839999)">
          <path
             d="m 2.328125,-4.4375 c 0,-0.1875 0,-0.1875 -0.203125,-0.1875 -0.453125,0.4375 -1.078125,0.4375 -1.359375,0.4375 v 0.25 c 0.15625,0 0.625,0 1,-0.1875 v 3.546875 c 0,0.234375 0,0.328125 -0.6875,0.328125 H 0.8125 V 0 c 0.125,0 0.984375,-0.03125 1.234375,-0.03125 0.21875,0 1.09375,0.03125 1.25,0.03125 V -0.25 H 3.03125 c -0.703125,0 -0.703125,-0.09375 -0.703125,-0.328125 z m 0,0"
             id="path1235" />
        </g>
      </g>
    </g>
  </g>
  <g
     inkscape:label=""
     transform="matrix(2,0,0,2,63.004385,18.94108)"
     id="g1441">
    <g
       fill="#000000"
       fill-opacity="1"
       id="g1431"
       transform="matrix(0.352778,0,0,0.352778,-0.104731,0.0410104)">
      <g
         id="g1429"
         transform="translate(0,4.29)">
        <path
           d="M 3.484375,-0.5625 C 3.59375,-0.15625 3.953125,0.109375 4.375,0.109375 4.71875,0.109375 4.953125,-0.125 5.109375,-0.4375 5.28125,-0.796875 5.40625,-1.40625 5.40625,-1.421875 c 0,-0.109375 -0.078125,-0.109375 -0.109375,-0.109375 -0.109375,0 -0.109375,0.046875 -0.140625,0.1875 -0.140625,0.5625 -0.328125,1.234375 -0.75,1.234375 -0.203125,0 -0.3125,-0.125 -0.3125,-0.453125 0,-0.21875 0.125,-0.6875 0.203125,-1.046875 L 4.578125,-2.6875 C 4.609375,-2.828125 4.703125,-3.203125 4.75,-3.359375 4.796875,-3.59375 4.890625,-3.96875 4.890625,-4.03125 c 0,-0.171875 -0.140625,-0.265625 -0.28125,-0.265625 -0.046875,0 -0.3125,0.015625 -0.390625,0.34375 -0.1875,0.734375 -0.625,2.484375 -0.75,3 -0.015625,0.046875 -0.40625,0.84375 -1.140625,0.84375 -0.515625,0 -0.609375,-0.453125 -0.609375,-0.8125 0,-0.5625 0.28125,-1.34375 0.53125,-2.03125 0.125,-0.3125 0.171875,-0.453125 0.171875,-0.640625 0,-0.4375 -0.3125,-0.8125 -0.8125,-0.8125 -0.953125,0 -1.3125,1.453125 -1.3125,1.53125 0,0.109375 0.09375,0.109375 0.109375,0.109375 0.109375,0 0.109375,-0.03125 0.15625,-0.1875 0.25,-0.859375 0.640625,-1.234375 1.015625,-1.234375 0.09375,0 0.25,0.015625 0.25,0.328125 0,0.234375 -0.109375,0.53125 -0.171875,0.671875 -0.375,1 -0.578125,1.609375 -0.578125,2.09375 0,0.953125 0.6875,1.203125 1.21875,1.203125 0.65625,0 1.015625,-0.453125 1.1875,-0.671875 z m 0,0"
           id="path1427" />
      </g>
    </g>
    <g
       clip-path="url(#clipPath3510)"
       id="g1439"
       transform="matrix(0.352778,0,0,0.352778,-0.104731,0.0410104)">
      <g
         fill="#000000"
         fill-opacity="1"
         id="g1437">
        <g
           id="g1435"
           transform="translate(5.7030001,5.7839999)">
          <path
             d="M 3.515625,-1.265625 H 3.28125 c -0.015625,0.15625 -0.09375,0.5625 -0.1875,0.625 C 3.046875,-0.59375 2.515625,-0.59375 2.40625,-0.59375 H 1.125 c 0.734375,-0.640625 0.984375,-0.84375 1.390625,-1.171875 0.515625,-0.40625 1,-0.84375 1,-1.5 0,-0.84375 -0.734375,-1.359375 -1.625,-1.359375 -0.859375,0 -1.453125,0.609375 -1.453125,1.25 0,0.34375 0.296875,0.390625 0.375,0.390625 0.15625,0 0.359375,-0.125 0.359375,-0.375 0,-0.125 -0.046875,-0.375 -0.40625,-0.375 C 0.984375,-4.21875 1.453125,-4.375 1.78125,-4.375 c 0.703125,0 1.0625,0.546875 1.0625,1.109375 0,0.609375 -0.4375,1.078125 -0.65625,1.328125 L 0.515625,-0.265625 C 0.4375,-0.203125 0.4375,-0.1875 0.4375,0 h 2.875 z m 0,0"
             id="path1433" />
        </g>
      </g>
    </g>
  </g>
  <g
     inkscape:label=""
     transform="matrix(2,0,0,2,122.18698,80.43906)"
     id="g1659">
    <g
       fill="#000000"
       fill-opacity="1"
       id="g1649"
       transform="matrix(0.352778,0,0,0.352778,-0.192925,0.00101418)">
      <g
         id="g1647"
         transform="translate(0,6.9190001)">
        <path
           d="m 2.859375,-6.8125 c 0,0 0,-0.109375 -0.125,-0.109375 -0.234375,0 -0.953125,0.078125 -1.21875,0.109375 -0.078125,0 -0.1875,0.015625 -0.1875,0.1875 0,0.125 0.09375,0.125 0.234375,0.125 0.484375,0 0.5,0.0625 0.5,0.171875 L 2.03125,-6.125 0.59375,-0.390625 c -0.046875,0.140625 -0.046875,0.15625 -0.046875,0.21875 0,0.234375 0.203125,0.28125 0.296875,0.28125 0.15625,0 0.3125,-0.125 0.359375,-0.265625 l 0.1875,-0.75 0.21875,-0.890625 C 1.671875,-2.03125 1.734375,-2.25 1.78125,-2.46875 1.796875,-2.53125 1.890625,-2.859375 1.890625,-2.921875 1.921875,-3.015625 2.234375,-3.5625 2.578125,-3.84375 2.796875,-4 3.09375,-4.1875 3.53125,-4.1875 c 0.421875,0 0.53125,0.34375 0.53125,0.703125 0,0.53125 -0.375,1.625 -0.609375,2.234375 C 3.375,-1.03125 3.3125,-0.90625 3.3125,-0.703125 c 0,0.46875 0.359375,0.8125 0.828125,0.8125 0.9375,0 1.296875,-1.453125 1.296875,-1.53125 0,-0.109375 -0.078125,-0.109375 -0.109375,-0.109375 -0.109375,0 -0.109375,0.03125 -0.15625,0.1875 -0.140625,0.53125 -0.46875,1.234375 -1.015625,1.234375 -0.171875,0 -0.234375,-0.09375 -0.234375,-0.328125 0,-0.25 0.078125,-0.484375 0.171875,-0.703125 0.15625,-0.4375 0.609375,-1.625 0.609375,-2.203125 0,-0.640625 -0.390625,-1.0625 -1.140625,-1.0625 -0.625,0 -1.109375,0.3125 -1.484375,0.765625 z m 0,0"
           id="path1645" />
      </g>
    </g>
  </g>
  <g
     inkscape:label=""
     transform="matrix(2,0,0,2,122.18698,30.2363)"
     id="g1659-9">
    <g
       fill="#000000"
       fill-opacity="1"
       id="g1649-2"
       transform="matrix(0.352778,0,0,0.352778,-0.192925,0.00101418)">
      <g
         id="g1647-2"
         transform="translate(0,6.9190001)">
        <path
           d="m 2.859375,-6.8125 c 0,0 0,-0.109375 -0.125,-0.109375 -0.234375,0 -0.953125,0.078125 -1.21875,0.109375 -0.078125,0 -0.1875,0.015625 -0.1875,0.1875 0,0.125 0.09375,0.125 0.234375,0.125 0.484375,0 0.5,0.0625 0.5,0.171875 L 2.03125,-6.125 0.59375,-0.390625 c -0.046875,0.140625 -0.046875,0.15625 -0.046875,0.21875 0,0.234375 0.203125,0.28125 0.296875,0.28125 0.15625,0 0.3125,-0.125 0.359375,-0.265625 l 0.1875,-0.75 0.21875,-0.890625 C 1.671875,-2.03125 1.734375,-2.25 1.78125,-2.46875 1.796875,-2.53125 1.890625,-2.859375 1.890625,-2.921875 1.921875,-3.015625 2.234375,-3.5625 2.578125,-3.84375 2.796875,-4 3.09375,-4.1875 3.53125,-4.1875 c 0.421875,0 0.53125,0.34375 0.53125,0.703125 0,0.53125 -0.375,1.625 -0.609375,2.234375 C 3.375,-1.03125 3.3125,-0.90625 3.3125,-0.703125 c 0,0.46875 0.359375,0.8125 0.828125,0.8125 0.9375,0 1.296875,-1.453125 1.296875,-1.53125 0,-0.109375 -0.078125,-0.109375 -0.109375,-0.109375 -0.109375,0 -0.109375,0.03125 -0.15625,0.1875 -0.140625,0.53125 -0.46875,1.234375 -1.015625,1.234375 -0.171875,0 -0.234375,-0.09375 -0.234375,-0.328125 0,-0.25 0.078125,-0.484375 0.171875,-0.703125 0.15625,-0.4375 0.609375,-1.625 0.609375,-2.203125 0,-0.640625 -0.390625,-1.0625 -1.140625,-1.0625 -0.625,0 -1.109375,0.3125 -1.484375,0.765625 z m 0,0"
           id="path1645-8" />
      </g>
    </g>
  </g>
  <path
     style="fill:none;stroke:#0000ff;stroke-width:0.560001;marker-start:url(#Stop);marker-end:url(#Arrow1L)"
     d="m 63.004385,15.97261 h 8.55663"
     id="path2306" />
  <path
     style="fill:none;stroke:#0000ff;stroke-width:0.560001;marker-start:url(#Stop-9);marker-end:url(#Arrow1L-3)"
     d="m 62.886394,66.56987 h 8.556631"
     id="path2306-1"
     inkscape:export-filename="path2306-1.jpg"
     inkscape:export-xdpi="96"
     inkscape:export-ydpi="96" />
  <g
     id="left_column-7"
     transform="translate(2.7509345,70.80127)" />
  <g
     id="story1_height-3"
     transform="translate(2.7509345,70.80127)" />
  <g
     inkscape:label=""
     transform="matrix(2,0,0,2,63.014526,200.74102)"
     id="g1243-6">
    <g
       fill="#000000"
       fill-opacity="1"
       id="g1233-4"
       transform="matrix(0.352778,0,0,0.352778,-0.104731,0.0410104)">
      <g
         id="g1231-9"
         transform="translate(0,4.29)">
        <path
           d="M 3.484375,-0.5625 C 3.59375,-0.15625 3.953125,0.109375 4.375,0.109375 4.71875,0.109375 4.953125,-0.125 5.109375,-0.4375 5.28125,-0.796875 5.40625,-1.40625 5.40625,-1.421875 c 0,-0.109375 -0.078125,-0.109375 -0.109375,-0.109375 -0.109375,0 -0.109375,0.046875 -0.140625,0.1875 -0.140625,0.5625 -0.328125,1.234375 -0.75,1.234375 -0.203125,0 -0.3125,-0.125 -0.3125,-0.453125 0,-0.21875 0.125,-0.6875 0.203125,-1.046875 L 4.578125,-2.6875 C 4.609375,-2.828125 4.703125,-3.203125 4.75,-3.359375 4.796875,-3.59375 4.890625,-3.96875 4.890625,-4.03125 c 0,-0.171875 -0.140625,-0.265625 -0.28125,-0.265625 -0.046875,0 -0.3125,0.015625 -0.390625,0.34375 -0.1875,0.734375 -0.625,2.484375 -0.75,3 -0.015625,0.046875 -0.40625,0.84375 -1.140625,0.84375 -0.515625,0 -0.609375,-0.453125 -0.609375,-0.8125 0,-0.5625 0.28125,-1.34375 0.53125,-2.03125 0.125,-0.3125 0.171875,-0.453125 0.171875,-0.640625 0,-0.4375 -0.3125,-0.8125 -0.8125,-0.8125 -0.953125,0 -1.3125,1.453125 -1.3125,1.53125 0,0.109375 0.09375,0.109375 0.109375,0.109375 0.109375,0 0.109375,-0.03125 0.15625,-0.1875 0.25,-0.859375 0.640625,-1.234375 1.015625,-1.234375 0.09375,0 0.25,0.015625 0.25,0.328125 0,0.234375 -0.109375,0.53125 -0.171875,0.671875 -0.375,1 -0.578125,1.609375 -0.578125,2.09375 0,0.953125 0.6875,1.203125 1.21875,1.203125 0.65625,0 1.015625,-0.453125 1.1875,-0.671875 z m 0,0"
           id="path1229-5" />
      </g>
    </g>
    <g
       clip-path="url(#clipPath6449-0)"
       id="g1241-0"
       transform="matrix(0.352778,0,0,0.352778,-0.104731,0.0410104)">
      <g
         fill="#000000"
         fill-opacity="1"
         id="g1239-4">
        <g
           id="g1237-8"
           transform="translate(5.7030001,5.7839999)">
          <path
             d="m 2.328125,-4.4375 c 0,-0.1875 0,-0.1875 -0.203125,-0.1875 -0.453125,0.4375 -1.078125,0.4375 -1.359375,0.4375 v 0.25 c 0.15625,0 0.625,0 1,-0.1875 v 3.546875 c 0,0.234375 0,0.328125 -0.6875,0.328125 H 0.8125 V 0 c 0.125,0 0.984375,-0.03125 1.234375,-0.03125 0.21875,0 1.09375,0.03125 1.25,0.03125 V -0.25 H 3.03125 c -0.703125,0 -0.703125,-0.09375 -0.703125,-0.328125 z m 0,0"
             id="path1235-7" />
        </g>
      </g>
    </g>
  </g>
  <g
     inkscape:label=""
     transform="matrix(2,0,0,2,62.860185,149.34235)"
     id="g1441-1">
    <g
       fill="#000000"
       fill-opacity="1"
       id="g1431-7"
       transform="matrix(0.352778,0,0,0.352778,-0.104731,0.0410104)">
      <g
         id="g1429-2"
         transform="translate(0,4.29)">
        <path
           d="M 3.484375,-0.5625 C 3.59375,-0.15625 3.953125,0.109375 4.375,0.109375 4.71875,0.109375 4.953125,-0.125 5.109375,-0.4375 5.28125,-0.796875 5.40625,-1.40625 5.40625,-1.421875 c 0,-0.109375 -0.078125,-0.109375 -0.109375,-0.109375 -0.109375,0 -0.109375,0.046875 -0.140625,0.1875 -0.140625,0.5625 -0.328125,1.234375 -0.75,1.234375 -0.203125,0 -0.3125,-0.125 -0.3125,-0.453125 0,-0.21875 0.125,-0.6875 0.203125,-1.046875 L 4.578125,-2.6875 C 4.609375,-2.828125 4.703125,-3.203125 4.75,-3.359375 4.796875,-3.59375 4.890625,-3.96875 4.890625,-4.03125 c 0,-0.171875 -0.140625,-0.265625 -0.28125,-0.265625 -0.046875,0 -0.3125,0.015625 -0.390625,0.34375 -0.1875,0.734375 -0.625,2.484375 -0.75,3 -0.015625,0.046875 -0.40625,0.84375 -1.140625,0.84375 -0.515625,0 -0.609375,-0.453125 -0.609375,-0.8125 0,-0.5625 0.28125,-1.34375 0.53125,-2.03125 0.125,-0.3125 0.171875,-0.453125 0.171875,-0.640625 0,-0.4375 -0.3125,-0.8125 -0.8125,-0.8125 -0.953125,0 -1.3125,1.453125 -1.3125,1.53125 0,0.109375 0.09375,0.109375 0.109375,0.109375 0.109375,0 0.109375,-0.03125 0.15625,-0.1875 0.25,-0.859375 0.640625,-1.234375 1.015625,-1.234375 0.09375,0 0.25,0.015625 0.25,0.328125 0,0.234375 -0.109375,0.53125 -0.171875,0.671875 -0.375,1 -0.578125,1.609375 -0.578125,2.09375 0,0.953125 0.6875,1.203125 1.21875,1.203125 0.65625,0 1.015625,-0.453125 1.1875,-0.671875 z m 0,0"
           id="path1427-7" />
      </g>
    </g>
    <g
       clip-path="url(#clipPath3510-3)"
       id="g1439-2"
       transform="matrix(0.352778,0,0,0.352778,-0.104731,0.0410104)">
      <g
         fill="#000000"
         fill-opacity="1"
         id="g1437-2">
        <g
           id="g1435-6"
           transform="translate(5.7030001,5.7839999)">
          <path
             d="M 3.515625,-1.265625 H 3.28125 c -0.015625,0.15625 -0.09375,0.5625 -0.1875,0.625 C 3.046875,-0.59375 2.515625,-0.59375 2.40625,-0.59375 H 1.125 c 0.734375,-0.640625 0.984375,-0.84375 1.390625,-1.171875 0.515625,-0.40625 1,-0.84375 1,-1.5 0,-0.84375 -0.734375,-1.359375 -1.625,-1.359375 -0.859375,0 -1.453125,0.609375 -1.453125,1.25 0,0.34375 0.296875,0.390625 0.375,0.390625 0.15625,0 0.359375,-0.125 0.359375,-0.375 0,-0.125 -0.046875,-0.375 -0.40625,-0.375 C 0.984375,-4.21875 1.453125,-4.375 1.78125,-4.375 c 0.703125,0 1.0625,0.546875 1.0625,1.109375 0,0.609375 -0.4375,1.078125 -0.65625,1.328125 L 0.515625,-0.265625 C 0.4375,-0.203125 0.4375,-0.1875 0.4375,0 h 2.875 z m 0,0"
             id="path1433-1" />
        </g>
      </g>
    </g>
  </g>
  <path
     style="fill:none;stroke:#000000;stroke-width:0.560001"
     d="M 29.898012,241.20127 C 34.321567,204.84925 41.341125,130.74048 41.341125,130.74048"
     id="path2909"
     sodipodi:nodetypes="cc" />
  <path
     style="fill:none;stroke:#000000;stroke-width:0.560001"
     d="m 36.428884,241.16745 c 4.423555,-36.35202 11.590191,-110.4 11.590191,-110.4"
     id="path2909-6"
     sodipodi:nodetypes="cc" />
  <path
     style="fill:none;stroke:#000000;stroke-width:0.560001"
     d="m 48.019075,130.76745 -6.677951,-0.027"
     id="path3124" />
  <path
     style="fill:none;stroke:#000000;stroke-width:0.560001"
     d="m 29.898012,241.20127 6.530872,-0.0338"
     id="path3128"
     sodipodi:nodetypes="cc" />
  <g
     id="g8242"
     transform="translate(0.63949814)">
    <path
       style="fill:#e0e0e0;fill-opacity:1;stroke:none;stroke-width:0.353393"
       d="m 89.637194,240.06678 c 0,-0.17454 0.260678,-2.52252 0.579286,-5.21773 2.151351,-18.19905 6.34936,-58.81516 9.90316,-95.81412 l 0.79385,-8.26488 2.98054,-0.0457 2.98053,-0.0457 -0.10446,1.04748 c -0.0575,0.57611 -0.85585,8.63614 -1.77422,17.91118 -3.26517,32.9763 -6.092361,59.90761 -8.606216,81.98097 -0.502004,4.40794 -0.950809,8.18349 -0.997339,8.39011 -0.08367,0.37152 -0.115972,0.37568 -2.919867,0.37568 -2.674538,0 -2.835264,-0.018 -2.835264,-0.31734 z"
       id="path3860-7" />
    <path
       style="fill:none;stroke:#000000;stroke-width:0.560001"
       d="M 89.147146,240.81845 C 93.570701,204.46643 100.59024,130.35766 100.59024,130.35766"
       id="path2909-2"
       sodipodi:nodetypes="cc" />
    <path
       style="fill:none;stroke:#000000;stroke-width:0.560001"
       d="m 95.678018,240.78463 c 4.423532,-36.35202 11.590172,-110.4 11.590172,-110.4"
       id="path2909-6-4"
       sodipodi:nodetypes="cc" />
    <path
       style="fill:none;stroke:#000000;stroke-width:0.560001"
       d="m 107.26819,130.38463 -6.67795,-0.027"
       id="path3124-0" />
    <path
       style="fill:none;stroke:#000000;stroke-width:0.560001"
       d="m 89.147146,240.81845 6.530872,-0.0338"
       id="path3128-6"
       sodipodi:nodetypes="cc" />
  </g>
  <path
     style="fill:none;stroke:#0000ff;stroke-width:0.560001;marker-start:url(#Stop-0);marker-end:url(#Arrow1L-2)"
     d="m 63.014916,146.37388 h 8.55663"
     id="path2306-9" />
  <g
     id="first_floor-2"
     transform="translate(8.735527,70.80126)">
    <rect
       x="27"
       y="118"
       width="66"
       height="4"
       fill="#e0e0e0"
       stroke="#000000"
       stroke-width="0.8"
       id="rect145-8" />
  </g>
  <g
     id="second_floor-9"
     transform="translate(13.334268,70.80127)">
    <rect
       x="27"
       y="68"
       width="66"
       height="4"
       fill="#e0e0e0"
       stroke="#000000"
       stroke-width="0.8"
       id="rect150-7" />
  </g>
  <g
     id="dofs-46"
     transform="translate(9.5091235,70.76503)">
    <!-- 1st floor DOF -->
    <circle
       cx="60"
       cy="120"
       r="2"
       fill="#000000"
       id="circle173-2" />
    <!-- 2nd floor DOF -->
    <circle
       cx="64.762497"
       cy="70"
       r="2"
       fill="#000000"
       id="circle177-5" />
  </g>
  <path
     style="fill:none;stroke:#0000ff;stroke-width:0.560001;marker-start:url(#Stop-9-8);marker-end:url(#Arrow1L-3-9)"
     d="m 62.742194,196.97114 h 8.556631"
     id="path2306-1-1"
     inkscape:export-filename="path2306-1.jpg"
     inkscape:export-xdpi="96"
     inkscape:export-ydpi="96" />
  <g
     id="ground-0-9"
     transform="matrix(0.75846677,0,0,1,-47.37004,185.52147)"
     inkscape:export-filename="modo-2.jpg"
     inkscape:export-xdpi="96"
     inkscape:export-ydpi="96">
    <line
       x1="63.023651"
       y1="170"
       x2="243.02362"
       y2="170"
       stroke="#000000"
       stroke-width="1.2"
       id="line134-2-1"
       style="fill:#e0e0e0;fill-opacity:1" />
  </g>
  <g
     inkscape:label=""
     transform="matrix(2,0,0,2,62.38749,329.86122)"
     id="g1243-6-6">
    <g
       fill="#000000"
       fill-opacity="1"
       id="g1233-4-4"
       transform="matrix(0.352778,0,0,0.352778,-0.104731,0.0410104)">
      <g
         id="g1231-9-0"
         transform="translate(0,4.29)">
        <path
           d="M 3.484375,-0.5625 C 3.59375,-0.15625 3.953125,0.109375 4.375,0.109375 4.71875,0.109375 4.953125,-0.125 5.109375,-0.4375 5.28125,-0.796875 5.40625,-1.40625 5.40625,-1.421875 c 0,-0.109375 -0.078125,-0.109375 -0.109375,-0.109375 -0.109375,0 -0.109375,0.046875 -0.140625,0.1875 -0.140625,0.5625 -0.328125,1.234375 -0.75,1.234375 -0.203125,0 -0.3125,-0.125 -0.3125,-0.453125 0,-0.21875 0.125,-0.6875 0.203125,-1.046875 L 4.578125,-2.6875 C 4.609375,-2.828125 4.703125,-3.203125 4.75,-3.359375 4.796875,-3.59375 4.890625,-3.96875 4.890625,-4.03125 c 0,-0.171875 -0.140625,-0.265625 -0.28125,-0.265625 -0.046875,0 -0.3125,0.015625 -0.390625,0.34375 -0.1875,0.734375 -0.625,2.484375 -0.75,3 -0.015625,0.046875 -0.40625,0.84375 -1.140625,0.84375 -0.515625,0 -0.609375,-0.453125 -0.609375,-0.8125 0,-0.5625 0.28125,-1.34375 0.53125,-2.03125 0.125,-0.3125 0.171875,-0.453125 0.171875,-0.640625 0,-0.4375 -0.3125,-0.8125 -0.8125,-0.8125 -0.953125,0 -1.3125,1.453125 -1.3125,1.53125 0,0.109375 0.09375,0.109375 0.109375,0.109375 0.109375,0 0.109375,-0.03125 0.15625,-0.1875 0.25,-0.859375 0.640625,-1.234375 1.015625,-1.234375 0.09375,0 0.25,0.015625 0.25,0.328125 0,0.234375 -0.109375,0.53125 -0.171875,0.671875 -0.375,1 -0.578125,1.609375 -0.578125,2.09375 0,0.953125 0.6875,1.203125 1.21875,1.203125 0.65625,0 1.015625,-0.453125 1.1875,-0.671875 z m 0,0"
           id="path1229-5-0" />
      </g>
    </g>
    <g
       clip-path="url(#clipPath6449-0-9)"
       id="g1241-0-4"
       transform="matrix(0.352778,0,0,0.352778,-0.104731,0.0410104)">
      <g
         fill="#000000"
         fill-opacity="1"
         id="g1239-4-6">
        <g
           id="g1237-8-2"
           transform="translate(5.7030001,5.7839999)">
          <path
             d="m 2.328125,-4.4375 c 0,-0.1875 0,-0.1875 -0.203125,-0.1875 -0.453125,0.4375 -1.078125,0.4375 -1.359375,0.4375 v 0.25 c 0.15625,0 0.625,0 1,-0.1875 v 3.546875 c 0,0.234375 0,0.328125 -0.6875,0.328125 H 0.8125 V 0 c 0.125,0 0.984375,-0.03125 1.234375,-0.03125 0.21875,0 1.09375,0.03125 1.25,0.03125 V -0.25 H 3.03125 c -0.703125,0 -0.703125,-0.09375 -0.703125,-0.328125 z m 0,0"
             id="path1235-7-6" />
        </g>
      </g>
    </g>
  </g>
  <g
     inkscape:label=""
     transform="matrix(2,0,0,2,62.233149,278.46255)"
     id="g1441-1-7">
    <g
       fill="#000000"
       fill-opacity="1"
       id="g1431-7-5"
       transform="matrix(0.352778,0,0,0.352778,-0.104731,0.0410104)">
      <g
         id="g1429-2-6"
         transform="translate(0,4.29)">
        <path
           d="M 3.484375,-0.5625 C 3.59375,-0.15625 3.953125,0.109375 4.375,0.109375 4.71875,0.109375 4.953125,-0.125 5.109375,-0.4375 5.28125,-0.796875 5.40625,-1.40625 5.40625,-1.421875 c 0,-0.109375 -0.078125,-0.109375 -0.109375,-0.109375 -0.109375,0 -0.109375,0.046875 -0.140625,0.1875 -0.140625,0.5625 -0.328125,1.234375 -0.75,1.234375 -0.203125,0 -0.3125,-0.125 -0.3125,-0.453125 0,-0.21875 0.125,-0.6875 0.203125,-1.046875 L 4.578125,-2.6875 C 4.609375,-2.828125 4.703125,-3.203125 4.75,-3.359375 4.796875,-3.59375 4.890625,-3.96875 4.890625,-4.03125 c 0,-0.171875 -0.140625,-0.265625 -0.28125,-0.265625 -0.046875,0 -0.3125,0.015625 -0.390625,0.34375 -0.1875,0.734375 -0.625,2.484375 -0.75,3 -0.015625,0.046875 -0.40625,0.84375 -1.140625,0.84375 -0.515625,0 -0.609375,-0.453125 -0.609375,-0.8125 0,-0.5625 0.28125,-1.34375 0.53125,-2.03125 0.125,-0.3125 0.171875,-0.453125 0.171875,-0.640625 0,-0.4375 -0.3125,-0.8125 -0.8125,-0.8125 -0.953125,0 -1.3125,1.453125 -1.3125,1.53125 0,0.109375 0.09375,0.109375 0.109375,0.109375 0.109375,0 0.109375,-0.03125 0.15625,-0.1875 0.25,-0.859375 0.640625,-1.234375 1.015625,-1.234375 0.09375,0 0.25,0.015625 0.25,0.328125 0,0.234375 -0.109375,0.53125 -0.171875,0.671875 -0.375,1 -0.578125,1.609375 -0.578125,2.09375 0,0.953125 0.6875,1.203125 1.21875,1.203125 0.65625,0 1.015625,-0.453125 1.1875,-0.671875 z m 0,0"
           id="path1427-7-9" />
      </g>
    </g>
    <g
       clip-path="url(#clipPath3510-3-8)"
       id="g1439-2-8"
       transform="matrix(0.352778,0,0,0.352778,-0.104731,0.0410104)">
      <g
         fill="#000000"
         fill-opacity="1"
         id="g1437-2-7">
        <g
           id="g1435-6-2"
           transform="translate(5.7030001,5.7839999)">
          <path
             d="M 3.515625,-1.265625 H 3.28125 c -0.015625,0.15625 -0.09375,0.5625 -0.1875,0.625 C 3.046875,-0.59375 2.515625,-0.59375 2.40625,-0.59375 H 1.125 c 0.734375,-0.640625 0.984375,-0.84375 1.390625,-1.171875 0.515625,-0.40625 1,-0.84375 1,-1.5 0,-0.84375 -0.734375,-1.359375 -1.625,-1.359375 -0.859375,0 -1.453125,0.609375 -1.453125,1.25 0,0.34375 0.296875,0.390625 0.375,0.390625 0.15625,0 0.359375,-0.125 0.359375,-0.375 0,-0.125 -0.046875,-0.375 -0.40625,-0.375 C 0.984375,-4.21875 1.453125,-4.375 1.78125,-4.375 c 0.703125,0 1.0625,0.546875 1.0625,1.109375 0,0.609375 -0.4375,1.078125 -0.65625,1.328125 L 0.515625,-0.265625 C 0.4375,-0.203125 0.4375,-0.1875 0.4375,0 h 2.875 z m 0,0"
             id="path1433-1-8" />
        </g>
      </g>
    </g>
  </g>
  <g
     id="g10596">
    <path
       style="fill:#e0e0e0;fill-opacity:1;stroke:none;stroke-width:0.353393"
       d="m 42.605675,369.18698 c 0,-0.17454 -0.260678,-2.52252 -0.579286,-5.21773 -2.151351,-18.19905 0.258741,0.87787 -3.295047,-36.12109 l -1.727892,-8.88278 -2.98054,-0.0457 -2.980529,-0.0457 0.10446,1.04748 c 0,0 4.44178,38.38339 4.706364,40.81702 0.502004,4.40794 0.950809,8.18349 0.997339,8.39011 0.08367,0.37152 0.115972,0.37568 2.919867,0.37568 2.674538,0 2.835264,-0.018 2.835264,-0.31734 z"
       id="path3860-7-7"
       sodipodi:nodetypes="ssscccccssss" />
    <path
       style="fill:none;stroke:#000000;stroke-width:0.560001"
       d="M 43.095723,369.93865 C 38.672168,333.58663 37.82479,317.89449 37.82479,317.89449"
       id="path2909-2-6"
       sodipodi:nodetypes="cc" />
    <path
       style="fill:none;stroke:#000000;stroke-width:0.560001"
       d="m 36.564851,369.90483 c -4.42353,-36.35202 -5.41801,-51.98337 -5.41801,-51.98337"
       id="path2909-6-4-1"
       sodipodi:nodetypes="cc" />
    <path
       style="fill:none;stroke:#000000;stroke-width:0.560001"
       d="m 43.095723,369.93865 -6.530872,-0.0338"
       id="path3128-6-2"
       sodipodi:nodetypes="cc" />
    <path
       style="fill:#e0e0e0;fill-opacity:1;stroke:none;stroke-width:0.353393"
       d="m 100.74049,369.19175 c 0,-0.17454 -0.26068,-2.52252 -0.57928,-5.21773 -2.151354,-18.19905 0.25874,0.87787 -3.29505,-36.12109 l -1.727892,-8.88278 -2.98054,-0.0457 -2.980529,-0.0457 0.10446,1.04748 c 0,0 4.44178,38.38339 4.706364,40.81702 0.502004,4.40794 0.950809,8.18349 0.997339,8.39011 0.08367,0.37152 0.115972,0.37568 2.919867,0.37568 2.674541,0 2.835261,-0.018 2.835261,-0.31734 z"
       id="path3860-7-7-0"
       sodipodi:nodetypes="ssscccccssss" />
    <path
       style="fill:none;stroke:#000000;stroke-width:0.560001"
       d="M 101.23054,369.94342 C 96.806986,333.5914 95.959608,317.89926 95.959608,317.89926"
       id="path2909-2-6-4"
       sodipodi:nodetypes="cc" />
    <path
       style="fill:none;stroke:#000000;stroke-width:0.560001"
       d="m 94.699669,369.9096 c -4.42353,-36.35202 -5.41801,-51.98337 -5.41801,-51.98337"
       id="path2909-6-4-1-8"
       sodipodi:nodetypes="cc" />
    <path
       style="fill:none;stroke:#000000;stroke-width:0.560001"
       d="m 101.23054,369.94342 -6.530871,-0.0338"
       id="path3128-6-2-0"
       sodipodi:nodetypes="cc" />
  </g>
  <g
     id="g10596-4"
     transform="matrix(-1,0,0,1,131.88733,-49.26075)">
    <path
       style="fill:#e0e0e0;fill-opacity:1;stroke:none;stroke-width:0.353393"
       d="m 42.605675,369.18698 c 0,-0.17454 -0.260678,-2.52252 -0.579286,-5.21773 -2.151351,-18.19905 0.258741,0.87787 -3.295047,-36.12109 l -1.727892,-8.88278 -2.98054,-0.0457 -2.980529,-0.0457 0.10446,1.04748 c 0,0 4.44178,38.38339 4.706364,40.81702 0.502004,4.40794 0.950809,8.18349 0.997339,8.39011 0.08367,0.37152 0.115972,0.37568 2.919867,0.37568 2.674538,0 2.835264,-0.018 2.835264,-0.31734 z"
       id="path3860-7-7-2"
       sodipodi:nodetypes="ssscccccssss" />
    <path
       style="fill:none;stroke:#000000;stroke-width:0.560001"
       d="M 43.095723,369.93865 C 38.672168,333.58663 37.82479,317.89449 37.82479,317.89449"
       id="path2909-2-6-9"
       sodipodi:nodetypes="cc" />
    <path
       style="fill:none;stroke:#000000;stroke-width:0.560001"
       d="m 36.564851,369.90483 c -4.42353,-36.35202 -5.41801,-51.98337 -5.41801,-51.98337"
       id="path2909-6-4-1-6"
       sodipodi:nodetypes="cc" />
    <path
       style="fill:none;stroke:#000000;stroke-width:0.560001"
       d="m 43.095723,369.93865 -6.530872,-0.0338"
       id="path3128-6-2-1"
       sodipodi:nodetypes="cc" />
    <path
       style="fill:#e0e0e0;fill-opacity:1;stroke:none;stroke-width:0.353393"
       d="m 100.74049,369.19175 c 0,-0.17454 -0.26068,-2.52252 -0.57928,-5.21773 -2.151354,-18.19905 0.25874,0.87787 -3.29505,-36.12109 l -1.727892,-8.88278 -2.98054,-0.0457 -2.980529,-0.0457 0.10446,1.04748 c 0,0 4.44178,38.38339 4.706364,40.81702 0.502004,4.40794 0.950809,8.18349 0.997339,8.39011 0.08367,0.37152 0.115972,0.37568 2.919867,0.37568 2.674541,0 2.835261,-0.018 2.835261,-0.31734 z"
       id="path3860-7-7-0-0"
       sodipodi:nodetypes="ssscccccssss" />
    <path
       style="fill:none;stroke:#000000;stroke-width:0.560001"
       d="M 101.23054,369.94342 C 96.806986,333.5914 95.959608,317.89926 95.959608,317.89926"
       id="path2909-2-6-4-4"
       sodipodi:nodetypes="cc" />
    <path
       style="fill:none;stroke:#000000;stroke-width:0.560001"
       d="m 94.699669,369.9096 c -4.42353,-36.35202 -5.41801,-51.98337 -5.41801,-51.98337"
       id="path2909-6-4-1-8-2"
       sodipodi:nodetypes="cc" />
    <path
       style="fill:none;stroke:#000000;stroke-width:0.560001"
       d="m 101.23054,369.94342 -6.530871,-0.0338"
       id="path3128-6-2-0-2"
       sodipodi:nodetypes="cc" />
  </g>
  <path
     style="fill:none;stroke:#0000ff;stroke-width:0.560001;marker-start:url(#Stop-0-3);marker-end:url(#Arrow1L-2-1)"
     d="m 62.639625,275.49408 h 8.55663"
     id="path2306-9-1" />
  <g
     id="first_floor-2-5"
     transform="matrix(-1,0,0,1,124.14684,199.92146)">
    <rect
       x="27"
       y="118"
       width="66"
       height="4"
       fill="#e0e0e0"
       stroke="#000000"
       stroke-width="0.8"
       id="rect145-8-9" />
  </g>
  <g
     id="second_floor-9-9"
     transform="translate(8.5279433,199.92147)">
    <rect
       x="27"
       y="68"
       width="66"
       height="4"
       fill="#e0e0e0"
       stroke="#000000"
       stroke-width="0.8"
       id="rect150-7-1" />
  </g>
  <g
     id="dofs-46-4"
     transform="translate(8.882088,199.88523)">
    <!-- 1st floor DOF -->
    <circle
       cx="60"
       cy="120"
       r="2"
       fill="#000000"
       id="circle173-2-9" />
    <!-- 2nd floor DOF -->
    <circle
       cx="64.762497"
       cy="70"
       r="2"
       fill="#000000"
       id="circle177-5-1" />
  </g>
  <path
     style="fill:none;stroke:#0000ff;stroke-width:0.560001;marker-start:url(#Stop-9-8-3);marker-end:url(#Arrow1L-3-9-0)"
     d="m 62.115158,326.09134 h 8.556631"
     id="path2306-1-1-0"
     inkscape:export-filename="path2306-1.jpg"
     inkscape:export-xdpi="96"
     inkscape:export-ydpi="96" />
</svg>
